<svg width="48" height="43" viewBox="0 0 48 43" fill="none" xmlns="http://www.w3.org/2000/svg">
<path d="M48 0H7.59959e-07V43H48V0Z" fill="#0D1117"/>
<path d="M15.0625 10.554L5.21875 21.9478L15.0625 33.3417" stroke="#14B8A6" stroke-width="2" stroke-linecap="round" stroke-linejoin="round"/>
<path d="M16.1186 27V16.8182H19.7479C20.54 16.8182 21.1963 16.9624 21.7166 17.2507C22.237 17.5391 22.6264 17.9335 22.8849 18.4339C23.1435 18.9311 23.2727 19.4912 23.2727 20.1143C23.2727 20.7408 23.1418 21.3042 22.88 21.8047C22.6214 22.3018 22.2304 22.6963 21.7067 22.9879C21.1863 23.2763 20.5317 23.4205 19.7429 23.4205H17.2472V22.1179H19.6037C20.1042 22.1179 20.5102 22.0317 20.8217 21.8594C21.1333 21.6837 21.362 21.4451 21.5078 21.1435C21.6536 20.8419 21.7266 20.4988 21.7266 20.1143C21.7266 19.7299 21.6536 19.3885 21.5078 19.0902C21.362 18.7919 21.1316 18.5582 20.8168 18.3892C20.5052 18.2202 20.0942 18.1357 19.5838 18.1357H17.6548V27H16.1186ZM33.5304 20.1293H31.9792C31.9196 19.7978 31.8085 19.5062 31.6461 19.2543C31.4837 19.0024 31.2849 18.7886 31.0495 18.6129C30.8142 18.4373 30.5507 18.3047 30.2591 18.2152C29.9707 18.1257 29.6641 18.081 29.3393 18.081C28.7527 18.081 28.2273 18.2285 27.7633 18.5234C27.3026 18.8184 26.938 19.2509 26.6696 19.821C26.4044 20.3911 26.2718 21.0871 26.2718 21.9091C26.2718 22.7377 26.4044 23.437 26.6696 24.0071C26.938 24.5772 27.3043 25.008 27.7683 25.2997C28.2323 25.5914 28.7543 25.7372 29.3343 25.7372C29.6558 25.7372 29.9608 25.6941 30.2491 25.608C30.5408 25.5185 30.8043 25.3875 31.0396 25.2152C31.2749 25.0429 31.4738 24.8324 31.6362 24.5838C31.8019 24.3319 31.9163 24.0436 31.9792 23.7188L33.5304 23.7237C33.4475 24.2242 33.2868 24.6849 33.0481 25.1058C32.8128 25.5234 32.5095 25.8847 32.1383 26.1896C31.7704 26.4912 31.3495 26.7249 30.8755 26.8906C30.4016 27.0563 29.8845 27.1392 29.3244 27.1392C28.4428 27.1392 27.6573 26.9304 26.9679 26.5128C26.2785 26.0919 25.7349 25.4903 25.3372 24.7081C24.9428 23.9259 24.7456 22.9929 24.7456 21.9091C24.7456 20.822 24.9444 19.889 25.3422 19.1101C25.7399 18.3279 26.2834 17.728 26.9728 17.3104C27.6622 16.8894 28.4461 16.679 29.3244 16.679C29.8646 16.679 30.3684 16.7569 30.8358 16.9126C31.3064 17.0651 31.729 17.2905 32.1035 17.5888C32.478 17.8838 32.7879 18.245 33.0332 18.6726C33.2785 19.0968 33.4442 19.5824 33.5304 20.1293Z" fill="white"/>
<path d="M31.9375 10.554L41.7812 21.9478L31.9375 33.3417" stroke="#14B8A6" stroke-width="2" stroke-linecap="round" stroke-linejoin="round"/>
</svg>
