<svg width="1304" height="892" viewBox="0 0 1304 892" fill="none" xmlns="http://www.w3.org/2000/svg">
<rect width="1304" height="892" fill="#171717"/>
<g filter="url(#filter0_f_431_311)">
<ellipse cx="652.53" cy="747.162" rx="479.435" ry="5.29758" fill="black"/>
</g>
<path d="M249.833 140H1058.4C1073.32 140 1085.4 152.088 1085.4 167V721.972C1085.4 723.629 1084.06 724.972 1082.4 724.972H225.833C224.176 724.972 222.833 723.629 222.833 721.972V167C222.833 152.088 234.922 140 249.833 140Z" fill="#1A202C" stroke="#4A5568" stroke-width="2"/>
<path d="M227.131 166.298C227.131 154.147 236.981 144.298 249.131 144.298H1059.11C1071.26 144.298 1081.11 154.147 1081.11 166.298V703.722H227.131V166.298Z" fill="black"/>
<path d="M614.41 706.327H616.141L619.151 713.677H619.262L622.272 706.327H624.003V715.782H622.645V708.94H622.558L619.769 715.768H618.643L615.855 708.936H615.767V715.782H614.41V706.327ZM628.029 715.939C627.58 715.939 627.174 715.856 626.811 715.689C626.448 715.52 626.16 715.276 625.947 714.955C625.738 714.635 625.633 714.243 625.633 713.778C625.633 713.378 625.71 713.049 625.864 712.79C626.018 712.532 626.226 712.327 626.488 712.176C626.749 712.026 627.042 711.912 627.365 711.835C627.688 711.758 628.017 711.699 628.353 711.659C628.777 711.61 629.122 711.57 629.387 711.539C629.651 711.505 629.844 711.452 629.964 711.378C630.084 711.304 630.144 711.184 630.144 711.018V710.985C630.144 710.582 630.03 710.27 629.802 710.048C629.577 709.827 629.242 709.716 628.796 709.716C628.331 709.716 627.965 709.819 627.697 710.025C627.432 710.228 627.249 710.454 627.148 710.704L625.85 710.408C626.004 709.977 626.229 709.63 626.524 709.365C626.823 709.097 627.166 708.903 627.554 708.783C627.942 708.66 628.35 708.599 628.777 708.599C629.06 708.599 629.361 708.632 629.678 708.7C629.998 708.765 630.296 708.885 630.573 709.06C630.853 709.236 631.082 709.486 631.261 709.813C631.439 710.136 631.529 710.556 631.529 711.073V715.782H630.181V714.812H630.125C630.036 714.991 629.902 715.166 629.724 715.339C629.545 715.511 629.316 715.654 629.036 715.768C628.756 715.882 628.42 715.939 628.029 715.939ZM628.33 714.831C628.711 714.831 629.037 714.755 629.308 714.605C629.582 714.454 629.79 714.257 629.931 714.014C630.076 713.767 630.148 713.504 630.148 713.224V712.31C630.099 712.359 630.004 712.406 629.862 712.449C629.724 712.489 629.565 712.524 629.387 712.555C629.208 712.583 629.034 712.609 628.865 712.633C628.696 712.655 628.554 712.673 628.44 712.689C628.173 712.723 627.928 712.78 627.706 712.86C627.488 712.94 627.312 713.055 627.18 713.206C627.051 713.354 626.986 713.551 626.986 713.797C626.986 714.138 627.112 714.397 627.365 714.572C627.617 714.745 627.939 714.831 628.33 714.831ZM636.354 715.925C635.668 715.925 635.077 715.769 634.581 715.459C634.089 715.145 633.71 714.712 633.446 714.161C633.181 713.611 633.049 712.98 633.049 712.269C633.049 711.548 633.184 710.913 633.455 710.362C633.726 709.808 634.107 709.376 634.6 709.065C635.092 708.754 635.672 708.599 636.34 708.599C636.879 708.599 637.359 708.699 637.781 708.899C638.202 709.096 638.542 709.373 638.801 709.73C639.062 710.087 639.218 710.504 639.267 710.981H637.924C637.85 710.648 637.681 710.362 637.416 710.122C637.154 709.882 636.803 709.762 636.363 709.762C635.979 709.762 635.642 709.863 635.352 710.067C635.066 710.267 634.843 710.553 634.683 710.925C634.523 711.295 634.443 711.732 634.443 712.236C634.443 712.753 634.521 713.2 634.678 713.575C634.835 713.951 635.057 714.241 635.343 714.448C635.632 714.654 635.972 714.757 636.363 714.757C636.625 714.757 636.862 714.709 637.074 714.614C637.29 714.515 637.47 714.375 637.614 714.194C637.762 714.012 637.865 713.794 637.924 713.538H639.267C639.218 713.997 639.069 714.406 638.819 714.766C638.57 715.126 638.236 715.409 637.818 715.616C637.402 715.822 636.914 715.925 636.354 715.925ZM640.854 715.782V706.327H642.234V709.84H642.317C642.397 709.693 642.513 709.522 642.664 709.328C642.814 709.134 643.024 708.965 643.292 708.82C643.559 708.672 643.913 708.599 644.353 708.599C644.926 708.599 645.437 708.743 645.886 709.033C646.335 709.322 646.688 709.739 646.943 710.284C647.202 710.828 647.331 711.484 647.331 712.25C647.331 713.017 647.203 713.674 646.948 714.221C646.692 714.766 646.341 715.186 645.895 715.482C645.449 715.774 644.94 715.92 644.367 715.92C643.936 715.92 643.584 715.848 643.31 715.703C643.039 715.559 642.827 715.389 642.673 715.196C642.519 715.002 642.401 714.829 642.317 714.678H642.202V715.782H640.854ZM642.207 712.236C642.207 712.735 642.279 713.172 642.424 713.547C642.568 713.923 642.778 714.217 643.051 714.429C643.325 714.638 643.661 714.743 644.058 714.743C644.47 714.743 644.815 714.634 645.092 714.415C645.369 714.194 645.578 713.894 645.72 713.515C645.864 713.137 645.937 712.71 645.937 712.236C645.937 711.769 645.866 711.348 645.724 710.976C645.586 710.604 645.377 710.31 645.097 710.094C644.82 709.879 644.473 709.771 644.058 709.771C643.658 709.771 643.319 709.874 643.042 710.08C642.768 710.287 642.561 710.574 642.419 710.944C642.277 711.313 642.207 711.744 642.207 712.236ZM651.868 715.925C651.203 715.925 650.623 715.773 650.127 715.468C649.632 715.163 649.247 714.737 648.973 714.189C648.699 713.641 648.562 713.001 648.562 712.269C648.562 711.533 648.699 710.89 648.973 710.339C649.247 709.788 649.632 709.36 650.127 709.056C650.623 708.751 651.203 708.599 651.868 708.599C652.533 708.599 653.113 708.751 653.608 709.056C654.104 709.36 654.488 709.788 654.762 710.339C655.036 710.89 655.173 711.533 655.173 712.269C655.173 713.001 655.036 713.641 654.762 714.189C654.488 714.737 654.104 715.163 653.608 715.468C653.113 715.773 652.533 715.925 651.868 715.925ZM651.872 714.766C652.303 714.766 652.66 714.652 652.943 714.425C653.227 714.197 653.436 713.894 653.571 713.515C653.71 713.137 653.779 712.72 653.779 712.264C653.779 711.812 653.71 711.396 653.571 711.018C653.436 710.636 653.227 710.33 652.943 710.099C652.66 709.868 652.303 709.753 651.872 709.753C651.438 709.753 651.078 709.868 650.792 710.099C650.509 710.33 650.298 710.636 650.16 711.018C650.024 711.396 649.957 711.812 649.957 712.264C649.957 712.72 650.024 713.137 650.16 713.515C650.298 713.894 650.509 714.197 650.792 714.425C651.078 714.652 651.438 714.766 651.872 714.766ZM659.701 715.925C659.036 715.925 658.456 715.773 657.96 715.468C657.465 715.163 657.08 714.737 656.806 714.189C656.532 713.641 656.395 713.001 656.395 712.269C656.395 711.533 656.532 710.89 656.806 710.339C657.08 709.788 657.465 709.36 657.96 709.056C658.456 708.751 659.036 708.599 659.701 708.599C660.366 708.599 660.946 708.751 661.441 709.056C661.937 709.36 662.321 709.788 662.595 710.339C662.869 710.89 663.006 711.533 663.006 712.269C663.006 713.001 662.869 713.641 662.595 714.189C662.321 714.737 661.937 715.163 661.441 715.468C660.946 715.773 660.366 715.925 659.701 715.925ZM659.705 714.766C660.136 714.766 660.493 714.652 660.776 714.425C661.06 714.197 661.269 713.894 661.404 713.515C661.543 713.137 661.612 712.72 661.612 712.264C661.612 711.812 661.543 711.396 661.404 711.018C661.269 710.636 661.06 710.33 660.776 710.099C660.493 709.868 660.136 709.753 659.705 709.753C659.271 709.753 658.911 709.868 658.625 710.099C658.342 710.33 658.131 710.636 657.993 711.018C657.857 711.396 657.79 711.812 657.79 712.264C657.79 712.72 657.857 713.137 657.993 713.515C658.131 713.894 658.342 714.197 658.625 714.425C658.911 714.652 659.271 714.766 659.705 714.766ZM665.816 713.377L665.807 711.692H666.047L668.873 708.691H670.525L667.303 712.107H667.086L665.816 713.377ZM664.547 715.782V706.327H665.927V715.782H664.547ZM669.025 715.782L666.486 712.412L667.437 711.447L670.719 715.782H669.025ZM676.133 715.782H674.619L678.021 706.327H679.669L683.072 715.782H681.557L678.885 708.045H678.811L676.133 715.782ZM676.387 712.079H681.299V713.28H676.387V712.079ZM684.39 715.782V708.691H685.77V715.782H684.39ZM685.087 707.597C684.847 707.597 684.641 707.517 684.468 707.357C684.299 707.194 684.214 707 684.214 706.775C684.214 706.547 684.299 706.353 684.468 706.193C684.641 706.03 684.847 705.949 685.087 705.949C685.327 705.949 685.532 706.03 685.701 706.193C685.873 706.353 685.959 706.547 685.959 706.775C685.959 707 685.873 707.194 685.701 707.357C685.532 707.517 685.327 707.597 685.087 707.597ZM687.627 715.782V708.691H688.961V709.817H689.035C689.164 709.436 689.392 709.136 689.718 708.917C690.048 708.696 690.42 708.585 690.835 708.585C690.922 708.585 691.023 708.588 691.14 708.594C691.26 708.6 691.354 708.608 691.422 708.617V709.937C691.366 709.922 691.268 709.905 691.126 709.887C690.985 709.865 690.843 709.854 690.702 709.854C690.375 709.854 690.085 709.923 689.829 710.062C689.577 710.197 689.377 710.387 689.229 710.63C689.081 710.87 689.007 711.144 689.007 711.452V715.782H687.627Z" fill="#A0AEC0"/>
<path d="M118 723.734C118 722.629 118.895 721.734 120 721.734H1184C1185.1 721.734 1186 722.629 1186 723.734V728.091H118V723.734Z" fill="#A3ACB1"/>
<path d="M118 723.734C118 722.629 118.895 721.734 120 721.734H1184C1185.1 721.734 1186 722.629 1186 723.734V728.091H118V723.734Z" fill="url(#paint0_linear_431_311)"/>
<path d="M118 727.586H1186L1162.1 732.405C1136.07 737.656 1109.58 740.3 1083.02 740.3H219.123C189.938 740.3 160.841 737.106 132.351 730.775L118 727.586Z" fill="#647279"/>
<path d="M118 727.586H1186L1162.1 732.405C1136.07 737.656 1109.58 740.3 1083.02 740.3H219.123C189.938 740.3 160.841 737.106 132.351 730.775L118 727.586Z" fill="url(#paint1_linear_431_311)"/>
<path fill-rule="evenodd" clip-rule="evenodd" d="M573.63 721.734C574.175 725.284 571.531 728.091 579.952 728.091H725.107C733.528 728.091 730.884 725.284 731.429 721.734H573.63Z" fill="#96A1A8"/>
<path fill-rule="evenodd" clip-rule="evenodd" d="M573.63 721.734C574.175 725.284 571.531 728.091 579.952 728.091H725.107C733.528 728.091 730.884 725.284 731.429 721.734H573.63Z" fill="url(#paint2_linear_431_311)"/>
<g clip-path="url(#clip0_431_311)">
<rect width="795" height="506" transform="translate(255 171)" fill="#171717"/>
<path d="M272.36 199V185H274.92L281.5 194.86V185H284.06V199H281.5L274.92 189.16V199H272.36ZM286.774 199V185H292.394C293.847 185 294.954 185.34 295.714 186.02C296.487 186.687 296.874 187.547 296.874 188.6C296.874 189.48 296.634 190.187 296.154 190.72C295.687 191.24 295.114 191.593 294.434 191.78C295.234 191.94 295.894 192.34 296.414 192.98C296.934 193.607 297.194 194.34 297.194 195.18C297.194 196.287 296.794 197.2 295.994 197.92C295.194 198.64 294.061 199 292.594 199H286.774ZM289.334 190.88H292.014C292.734 190.88 293.287 190.713 293.674 190.38C294.061 190.047 294.254 189.573 294.254 188.96C294.254 188.373 294.061 187.913 293.674 187.58C293.301 187.233 292.734 187.06 291.974 187.06H289.334V190.88ZM289.334 196.92H292.194C292.954 196.92 293.541 196.747 293.954 196.4C294.381 196.04 294.594 195.54 294.594 194.9C294.594 194.247 294.374 193.733 293.934 193.36C293.494 192.987 292.901 192.8 292.154 192.8H289.334V196.92ZM298.374 199L303.494 185H306.374L311.494 199H308.774L307.654 195.76H302.194L301.054 199H298.374ZM302.894 193.76H306.954L304.914 187.94L302.894 193.76Z" fill="#F9F9F9"/>
<path d="M271.036 214V204.2H274.256C275.021 204.2 275.651 204.326 276.146 204.578C276.641 204.83 277.005 205.171 277.238 205.6C277.481 206.029 277.602 206.515 277.602 207.056C277.602 207.588 277.485 208.069 277.252 208.498C277.019 208.927 276.655 209.273 276.16 209.534C275.665 209.786 275.031 209.912 274.256 209.912H272.212V214H271.036ZM272.212 208.918H274.228C275.012 208.918 275.567 208.755 275.894 208.428C276.23 208.092 276.398 207.635 276.398 207.056C276.398 206.468 276.23 206.011 275.894 205.684C275.567 205.348 275.012 205.18 274.228 205.18H272.212V208.918ZM279.073 214V203.92H280.249V214H279.073ZM284.487 214.168C283.908 214.168 283.428 214.07 283.045 213.874C282.662 213.678 282.378 213.417 282.191 213.09C282.004 212.763 281.911 212.409 281.911 212.026C281.911 211.317 282.182 210.771 282.723 210.388C283.264 210.005 284.002 209.814 284.935 209.814H286.811V209.73C286.811 209.123 286.652 208.666 286.335 208.358C286.018 208.041 285.593 207.882 285.061 207.882C284.604 207.882 284.207 207.999 283.871 208.232C283.544 208.456 283.339 208.787 283.255 209.226H282.051C282.098 208.722 282.266 208.297 282.555 207.952C282.854 207.607 283.222 207.345 283.661 207.168C284.1 206.981 284.566 206.888 285.061 206.888C286.032 206.888 286.76 207.149 287.245 207.672C287.74 208.185 287.987 208.871 287.987 209.73V214H286.937L286.867 212.754C286.671 213.146 286.382 213.482 285.999 213.762C285.626 214.033 285.122 214.168 284.487 214.168ZM284.669 213.174C285.117 213.174 285.5 213.057 285.817 212.824C286.144 212.591 286.391 212.287 286.559 211.914C286.727 211.541 286.811 211.149 286.811 210.738V210.724H285.033C284.342 210.724 283.852 210.845 283.563 211.088C283.283 211.321 283.143 211.615 283.143 211.97C283.143 212.334 283.274 212.628 283.535 212.852C283.806 213.067 284.184 213.174 284.669 213.174ZM290.302 217.08L292.024 213.328H291.618L288.86 207.056H290.134L292.43 212.46L294.866 207.056H296.084L291.534 217.08H290.302ZM299.791 214.168C299.128 214.168 298.54 214.019 298.027 213.72C297.514 213.412 297.108 212.987 296.809 212.446C296.52 211.905 296.375 211.265 296.375 210.528C296.375 209.8 296.52 209.165 296.809 208.624C297.098 208.073 297.5 207.649 298.013 207.35C298.536 207.042 299.138 206.888 299.819 206.888C300.491 206.888 301.07 207.042 301.555 207.35C302.05 207.649 302.428 208.045 302.689 208.54C302.95 209.035 303.081 209.567 303.081 210.136C303.081 210.239 303.076 210.341 303.067 210.444C303.067 210.547 303.067 210.663 303.067 210.794H297.537C297.565 211.326 297.686 211.769 297.901 212.124C298.125 212.469 298.4 212.731 298.727 212.908C299.063 213.085 299.418 213.174 299.791 213.174C300.276 213.174 300.682 213.062 301.009 212.838C301.336 212.614 301.574 212.311 301.723 211.928H302.885C302.698 212.572 302.339 213.109 301.807 213.538C301.284 213.958 300.612 214.168 299.791 214.168ZM299.791 207.882C299.231 207.882 298.732 208.055 298.293 208.4C297.864 208.736 297.616 209.231 297.551 209.884H301.919C301.891 209.259 301.676 208.769 301.275 208.414C300.874 208.059 300.379 207.882 299.791 207.882ZM304.64 214V207.056H305.704L305.802 208.386C306.016 207.929 306.343 207.565 306.782 207.294C307.22 207.023 307.762 206.888 308.406 206.888V208.12H308.084C307.673 208.12 307.295 208.195 306.95 208.344C306.604 208.484 306.329 208.727 306.124 209.072C305.918 209.417 305.816 209.893 305.816 210.5V214H304.64ZM312.386 214.168C311.555 214.168 310.864 213.958 310.314 213.538C309.763 213.118 309.441 212.549 309.348 211.83H310.552C310.626 212.194 310.818 212.511 311.126 212.782C311.443 213.043 311.868 213.174 312.4 213.174C312.894 213.174 313.258 213.071 313.492 212.866C313.725 212.651 313.842 212.399 313.842 212.11C313.842 211.69 313.688 211.41 313.38 211.27C313.081 211.13 312.656 211.004 312.106 210.892C311.732 210.817 311.359 210.71 310.986 210.57C310.612 210.43 310.3 210.234 310.048 209.982C309.796 209.721 309.67 209.38 309.67 208.96C309.67 208.353 309.894 207.859 310.342 207.476C310.799 207.084 311.415 206.888 312.19 206.888C312.927 206.888 313.529 207.075 313.996 207.448C314.472 207.812 314.747 208.335 314.822 209.016H313.66C313.613 208.661 313.459 208.386 313.198 208.19C312.946 207.985 312.605 207.882 312.176 207.882C311.756 207.882 311.429 207.971 311.196 208.148C310.972 208.325 310.86 208.559 310.86 208.848C310.86 209.128 311.004 209.347 311.294 209.506C311.592 209.665 311.994 209.8 312.498 209.912C312.927 210.005 313.333 210.122 313.716 210.262C314.108 210.393 314.425 210.593 314.668 210.864C314.92 211.125 315.046 211.508 315.046 212.012C315.055 212.637 314.817 213.155 314.332 213.566C313.856 213.967 313.207 214.168 312.386 214.168Z" fill="#F9F9F9"/>
<g clip-path="url(#clip1_431_311)">
<path d="M333.969 181H343.031C345.229 181 347 182.744 347 184.91V215.09C347 217.256 345.229 219 343.031 219H333.969C331.771 219 330 217.256 330 215.09V184.91C330 182.744 331.771 181 333.969 181Z" fill="white"/>
<path d="M340.782 187.965L340.793 188.095C341.067 188.254 341.21 188.383 341.488 188.558C342.221 189.018 343.123 189.831 343.011 192.628C343.223 193.24 343.316 194.433 343.501 194.813C343.879 195.565 344.142 196.056 344.253 196.759C344.253 196.759 344.365 197.861 344.508 197.94C345.264 198.111 345.048 198.184 345.156 198.32C345.276 198.469 345.715 198.461 345.715 198.864C345.87 199.065 345.989 199.267 346.07 199.487V184.941C346.07 183.276 344.705 181.931 343.019 181.931H340.107C340.573 182.094 340.84 182.292 340.994 182.6C341.368 182.63 341.808 183.459 341.117 184.686C341.422 184.895 341.187 185.199 340.967 185.549C340.897 185.659 340.832 185.86 340.624 185.849C340.35 186.407 340.033 186.932 339.79 186.962C339.721 187.05 339.671 187.285 339.779 187.395C340.134 187.555 340.562 187.764 340.782 187.965Z" fill="#C80F2E"/>
<path d="M343.501 218.031L343.471 218.039C344.805 217.237 343.98 215.721 343.725 214.824L343.775 214.672C343.845 214.55 343.702 214.261 343.702 214.261C343.536 214.128 343.498 213.38 343.409 213.038C343.266 212.479 343.663 211.506 343.663 211.176C343.663 210.845 343.409 210.393 342.95 209.815C342.838 209.686 342.502 206.867 342.205 206.148C341.789 205.164 341.665 205.324 341.168 204.142C340.79 203.317 341.087 202.098 340.23 199.27L340.423 199.092C340.423 199.092 339.74 196.629 339.517 195.957C339.301 195.284 338.896 195.242 338.896 195.242L338.919 194.893C338.95 194.79 339.752 192.738 339.821 192.67C339.829 192.628 340.979 191.849 340.994 191.967C341.087 192.468 341.534 195.022 341.727 195.425C341.92 195.835 342.583 197.085 342.888 197.861C341.7 198.149 340.813 199.206 340.813 200.464C340.813 201.946 342.032 203.15 343.536 203.15C344.686 203.15 345.681 202.447 346.078 201.455L346.07 215.063C346.067 216.568 344.967 217.811 343.501 218.031V218.031Z" fill="#C80F2E"/>
<path d="M339.146 181.931C338.151 182.311 338.016 182.733 337.977 184.093C337.811 184.112 337.46 183.953 337.58 184.777C337.58 184.777 337.642 185.328 337.865 185.237C337.692 186.438 337.831 186.738 337.021 186.822C336.847 186.841 336.635 186.852 336.372 186.863L336.291 186.974C335.184 187.076 334.637 187.008 333.923 187.935C333.649 188.288 333.356 188.794 332.997 189.508C332.997 189.508 332.669 190.31 332.569 190.641C332.253 191.294 331.477 192.746 331.246 193.677C331.173 193.996 331.03 194.095 331.234 194.551C331.539 195.212 331.034 195.383 332.762 195.334V195.725C332.762 195.725 332.303 196.116 332.203 196.348C332.11 196.588 331.844 197.754 331.855 198.313C331.886 199.764 333.086 200.977 333.441 202.421L334.243 202.531C334.679 203.515 336.581 206.171 337.021 206.601L337.04 206.62C337.14 206.87 337.63 207.182 337.915 207.494C338.089 207.657 338.891 208.516 339.96 209.329C340.353 209.629 340.774 209.922 341.214 210.173C341.202 210.165 341.476 210.705 341.611 211.145C341.063 211.579 342.128 212.377 342.448 213.691C342.467 213.87 342.136 214.045 342.629 214.482C342.598 216.469 341.985 217.51 343.015 218.061H333.927C332.276 218.023 330.937 216.69 330.937 215.056V184.941C330.937 183.295 332.272 181.965 333.927 181.931H339.146V181.931Z" fill="#1D4289"/>
</g>
<path d="M595.184 200V188.8H596.528V193.744H602.336V188.8H603.68V200H602.336V194.848H596.528V200H595.184ZM609.579 200.192C608.833 200.192 608.161 200.021 607.563 199.68C606.966 199.339 606.491 198.859 606.139 198.24C605.798 197.611 605.627 196.875 605.627 196.032C605.627 195.189 605.803 194.459 606.155 193.84C606.507 193.211 606.982 192.725 607.579 192.384C608.187 192.043 608.865 191.872 609.611 191.872C610.358 191.872 611.03 192.043 611.627 192.384C612.225 192.725 612.694 193.211 613.035 193.84C613.387 194.459 613.563 195.189 613.563 196.032C613.563 196.875 613.387 197.611 613.035 198.24C612.683 198.859 612.203 199.339 611.595 199.68C610.998 200.021 610.326 200.192 609.579 200.192ZM609.579 199.04C610.038 199.04 610.465 198.928 610.859 198.704C611.254 198.48 611.574 198.144 611.819 197.696C612.065 197.248 612.187 196.693 612.187 196.032C612.187 195.371 612.065 194.816 611.819 194.368C611.585 193.92 611.27 193.584 610.875 193.36C610.481 193.136 610.059 193.024 609.611 193.024C609.153 193.024 608.726 193.136 608.331 193.36C607.937 193.584 607.617 193.92 607.371 194.368C607.126 194.816 607.003 195.371 607.003 196.032C607.003 196.693 607.126 197.248 607.371 197.696C607.617 198.144 607.931 198.48 608.315 198.704C608.71 198.928 609.131 199.04 609.579 199.04ZM615.432 200V192.064H616.648L616.744 193.216C617 192.789 617.341 192.459 617.768 192.224C618.195 191.989 618.675 191.872 619.208 191.872C619.837 191.872 620.376 192 620.824 192.256C621.283 192.512 621.635 192.901 621.88 193.424C622.157 192.944 622.536 192.565 623.016 192.288C623.507 192.011 624.035 191.872 624.6 191.872C625.549 191.872 626.307 192.16 626.872 192.736C627.437 193.301 627.72 194.176 627.72 195.36V200H626.392V195.504C626.392 194.683 626.227 194.064 625.896 193.648C625.565 193.232 625.091 193.024 624.472 193.024C623.832 193.024 623.299 193.275 622.872 193.776C622.456 194.267 622.248 194.971 622.248 195.888V200H620.904V195.504C620.904 194.683 620.739 194.064 620.408 193.648C620.077 193.232 619.603 193.024 618.984 193.024C618.355 193.024 617.827 193.275 617.4 193.776C616.984 194.267 616.776 194.971 616.776 195.888V200H615.432ZM633.313 200.192C632.555 200.192 631.883 200.021 631.297 199.68C630.71 199.328 630.246 198.843 629.905 198.224C629.574 197.605 629.409 196.875 629.409 196.032C629.409 195.2 629.574 194.475 629.905 193.856C630.235 193.227 630.694 192.741 631.281 192.4C631.878 192.048 632.566 191.872 633.345 191.872C634.113 191.872 634.774 192.048 635.329 192.4C635.894 192.741 636.326 193.195 636.625 193.76C636.923 194.325 637.073 194.933 637.073 195.584C637.073 195.701 637.067 195.819 637.057 195.936C637.057 196.053 637.057 196.187 637.057 196.336H630.737C630.769 196.944 630.907 197.451 631.153 197.856C631.409 198.251 631.723 198.549 632.097 198.752C632.481 198.955 632.886 199.056 633.313 199.056C633.867 199.056 634.331 198.928 634.705 198.672C635.078 198.416 635.35 198.069 635.521 197.632H636.849C636.635 198.368 636.225 198.981 635.617 199.472C635.019 199.952 634.251 200.192 633.313 200.192ZM633.313 193.008C632.673 193.008 632.102 193.205 631.601 193.6C631.11 193.984 630.827 194.549 630.753 195.296H635.745C635.713 194.581 635.467 194.021 635.009 193.616C634.55 193.211 633.985 193.008 633.313 193.008Z" fill="#F9F9F9"/>
<path d="M677.68 200.192C676.667 200.192 675.872 199.909 675.296 199.344C674.72 198.779 674.432 197.995 674.432 196.992H675.792C675.792 197.557 675.931 198.032 676.208 198.416C676.485 198.8 676.971 198.992 677.664 198.992C678.336 198.992 678.8 198.805 679.056 198.432C679.323 198.059 679.456 197.595 679.456 197.04V188.8H680.8V197.04C680.8 198.032 680.523 198.805 679.968 199.36C679.424 199.915 678.661 200.192 677.68 200.192ZM686.704 200.192C685.958 200.192 685.286 200.021 684.688 199.68C684.091 199.339 683.616 198.859 683.264 198.24C682.923 197.611 682.752 196.875 682.752 196.032C682.752 195.189 682.928 194.459 683.28 193.84C683.632 193.211 684.107 192.725 684.704 192.384C685.312 192.043 685.99 191.872 686.736 191.872C687.483 191.872 688.155 192.043 688.752 192.384C689.35 192.725 689.819 193.211 690.16 193.84C690.512 194.459 690.688 195.189 690.688 196.032C690.688 196.875 690.512 197.611 690.16 198.24C689.808 198.859 689.328 199.339 688.72 199.68C688.123 200.021 687.451 200.192 686.704 200.192ZM686.704 199.04C687.163 199.04 687.59 198.928 687.984 198.704C688.379 198.48 688.699 198.144 688.944 197.696C689.19 197.248 689.312 196.693 689.312 196.032C689.312 195.371 689.19 194.816 688.944 194.368C688.71 193.92 688.395 193.584 688 193.36C687.606 193.136 687.184 193.024 686.736 193.024C686.278 193.024 685.851 193.136 685.456 193.36C685.062 193.584 684.742 193.92 684.496 194.368C684.251 194.816 684.128 195.371 684.128 196.032C684.128 196.693 684.251 197.248 684.496 197.696C684.742 198.144 685.056 198.48 685.44 198.704C685.835 198.928 686.256 199.04 686.704 199.04ZM695.349 197.504C694.901 197.504 694.491 197.445 694.117 197.328L693.317 198.08C693.435 198.165 693.579 198.24 693.749 198.304C693.931 198.357 694.187 198.411 694.517 198.464C694.848 198.507 695.312 198.555 695.909 198.608C696.976 198.683 697.739 198.928 698.197 199.344C698.656 199.76 698.885 200.304 698.885 200.976C698.885 201.435 698.757 201.872 698.501 202.288C698.256 202.704 697.872 203.045 697.349 203.312C696.837 203.579 696.176 203.712 695.365 203.712C694.651 203.712 694.016 203.616 693.461 203.424C692.907 203.243 692.475 202.96 692.165 202.576C691.856 202.203 691.701 201.728 691.701 201.152C691.701 200.853 691.781 200.528 691.941 200.176C692.101 199.835 692.4 199.509 692.837 199.2C692.603 199.104 692.4 199.003 692.229 198.896C692.069 198.779 691.92 198.651 691.781 198.512V198.144L693.141 196.8C692.512 196.267 692.197 195.563 692.197 194.688C692.197 194.165 692.32 193.691 692.565 193.264C692.811 192.837 693.168 192.501 693.637 192.256C694.107 192 694.677 191.872 695.349 191.872C695.808 191.872 696.224 191.936 696.597 192.064H699.525V193.072L698.037 193.136C698.347 193.584 698.501 194.101 698.501 194.688C698.501 195.211 698.373 195.685 698.117 196.112C697.872 196.539 697.515 196.88 697.045 197.136C696.587 197.381 696.021 197.504 695.349 197.504ZM695.349 196.4C695.915 196.4 696.363 196.256 696.693 195.968C697.035 195.669 697.205 195.243 697.205 194.688C697.205 194.144 697.035 193.728 696.693 193.44C696.363 193.141 695.915 192.992 695.349 192.992C694.773 192.992 694.315 193.141 693.973 193.44C693.643 193.728 693.477 194.144 693.477 194.688C693.477 195.243 693.643 195.669 693.973 195.968C694.315 196.256 694.773 196.4 695.349 196.4ZM693.013 201.024C693.013 201.557 693.237 201.952 693.685 202.208C694.133 202.475 694.693 202.608 695.365 202.608C696.027 202.608 696.555 202.464 696.949 202.176C697.355 201.888 697.557 201.504 697.557 201.024C697.557 200.683 697.419 200.384 697.141 200.128C696.864 199.883 696.352 199.739 695.605 199.696C695.019 199.653 694.512 199.6 694.085 199.536C693.648 199.771 693.36 200.021 693.221 200.288C693.083 200.565 693.013 200.811 693.013 201.024ZM703.682 200.192C703.02 200.192 702.471 200.08 702.034 199.856C701.596 199.632 701.271 199.333 701.058 198.96C700.844 198.587 700.738 198.181 700.738 197.744C700.738 196.933 701.047 196.309 701.666 195.872C702.284 195.435 703.127 195.216 704.194 195.216H706.338V195.12C706.338 194.427 706.156 193.904 705.794 193.552C705.431 193.189 704.946 193.008 704.338 193.008C703.815 193.008 703.362 193.141 702.978 193.408C702.604 193.664 702.37 194.043 702.274 194.544H700.898C700.951 193.968 701.143 193.483 701.474 193.088C701.815 192.693 702.236 192.395 702.738 192.192C703.239 191.979 703.772 191.872 704.338 191.872C705.447 191.872 706.279 192.171 706.834 192.768C707.399 193.355 707.682 194.139 707.682 195.12V200H706.482L706.402 198.576C706.178 199.024 705.847 199.408 705.41 199.728C704.983 200.037 704.407 200.192 703.682 200.192ZM703.89 199.056C704.402 199.056 704.839 198.923 705.202 198.656C705.575 198.389 705.858 198.043 706.05 197.616C706.242 197.189 706.338 196.741 706.338 196.272V196.256H704.306C703.516 196.256 702.956 196.395 702.626 196.672C702.306 196.939 702.146 197.275 702.146 197.68C702.146 198.096 702.295 198.432 702.594 198.688C702.903 198.933 703.335 199.056 703.89 199.056ZM713.298 200.192C712.508 200.192 711.815 200.011 711.218 199.648C710.631 199.285 710.172 198.789 709.842 198.16C709.522 197.531 709.362 196.816 709.362 196.016C709.362 195.216 709.527 194.507 709.858 193.888C710.188 193.259 710.647 192.768 711.234 192.416C711.82 192.053 712.514 191.872 713.314 191.872C713.964 191.872 714.54 192.005 715.042 192.272C715.543 192.539 715.932 192.912 716.21 193.392V188.48H717.554V200H716.338L716.21 198.688C715.954 199.072 715.586 199.419 715.106 199.728C714.626 200.037 714.023 200.192 713.298 200.192ZM713.442 199.024C713.975 199.024 714.444 198.901 714.85 198.656C715.266 198.4 715.586 198.048 715.81 197.6C716.044 197.152 716.162 196.629 716.162 196.032C716.162 195.435 716.044 194.912 715.81 194.464C715.586 194.016 715.266 193.669 714.85 193.424C714.444 193.168 713.975 193.04 713.442 193.04C712.919 193.04 712.45 193.168 712.034 193.424C711.628 193.669 711.308 194.016 711.074 194.464C710.85 194.912 710.738 195.435 710.738 196.032C710.738 196.629 710.85 197.152 711.074 197.6C711.308 198.048 711.628 198.4 712.034 198.656C712.45 198.901 712.919 199.024 713.442 199.024ZM723.361 200.192C722.614 200.192 721.942 200.021 721.345 199.68C720.747 199.339 720.273 198.859 719.921 198.24C719.579 197.611 719.409 196.875 719.409 196.032C719.409 195.189 719.585 194.459 719.937 193.84C720.289 193.211 720.763 192.725 721.361 192.384C721.969 192.043 722.646 191.872 723.393 191.872C724.139 191.872 724.811 192.043 725.409 192.384C726.006 192.725 726.475 193.211 726.817 193.84C727.169 194.459 727.345 195.189 727.345 196.032C727.345 196.875 727.169 197.611 726.817 198.24C726.465 198.859 725.985 199.339 725.377 199.68C724.779 200.021 724.107 200.192 723.361 200.192ZM723.361 199.04C723.819 199.04 724.246 198.928 724.641 198.704C725.035 198.48 725.355 198.144 725.601 197.696C725.846 197.248 725.969 196.693 725.969 196.032C725.969 195.371 725.846 194.816 725.601 194.368C725.366 193.92 725.051 193.584 724.657 193.36C724.262 193.136 723.841 193.024 723.393 193.024C722.934 193.024 722.507 193.136 722.113 193.36C721.718 193.584 721.398 193.92 721.153 194.368C720.907 194.816 720.785 195.371 720.785 196.032C720.785 196.693 720.907 197.248 721.153 197.696C721.398 198.144 721.713 198.48 722.097 198.704C722.491 198.928 722.913 199.04 723.361 199.04ZM729.213 200V192.064H730.429L730.541 193.584C730.787 193.061 731.16 192.645 731.661 192.336C732.163 192.027 732.781 191.872 733.517 191.872V193.28H733.149C732.68 193.28 732.248 193.365 731.853 193.536C731.459 193.696 731.144 193.973 730.909 194.368C730.675 194.763 730.557 195.307 730.557 196V200H729.213Z" fill="#F9F9F9"/>
<rect x="676" y="211" width="55" height="3" fill="#3F3F3F"/>
<path d="M989 202.75C991.071 202.75 992.75 201.071 992.75 199C992.75 196.929 991.071 195.25 989 195.25C986.929 195.25 985.25 196.929 985.25 199C985.25 201.071 986.929 202.75 989 202.75Z" stroke="#828282" stroke-width="2" stroke-linecap="round" stroke-linejoin="round"/>
<path d="M989 193.25V192" stroke="#828282" stroke-width="2" stroke-linecap="round" stroke-linejoin="round"/>
<path d="M984.931 194.931L984.05 194.05" stroke="#828282" stroke-width="2" stroke-linecap="round" stroke-linejoin="round"/>
<path d="M983.25 199H982" stroke="#828282" stroke-width="2" stroke-linecap="round" stroke-linejoin="round"/>
<path d="M984.931 203.069L984.05 203.95" stroke="#828282" stroke-width="2" stroke-linecap="round" stroke-linejoin="round"/>
<path d="M989 204.75V206" stroke="#828282" stroke-width="2" stroke-linecap="round" stroke-linejoin="round"/>
<path d="M993.069 203.069L993.95 203.95" stroke="#828282" stroke-width="2" stroke-linecap="round" stroke-linejoin="round"/>
<path d="M994.75 199H996" stroke="#828282" stroke-width="2" stroke-linecap="round" stroke-linejoin="round"/>
<path d="M993.069 194.931L993.95 194.05" stroke="#828282" stroke-width="2" stroke-linecap="round" stroke-linejoin="round"/>
<path d="M1022 191C1026.42 191 1030 194.582 1030 199C1030 202.552 1027.68 205.561 1024.48 206.605C1024.48 206.603 1024.48 206.598 1024.48 206.598C1024.48 206.598 1023.94 206.346 1023.95 205.894C1023.97 205.397 1023.95 204.237 1023.95 203.812C1023.95 203.081 1023.49 202.562 1023.49 202.562C1023.49 202.562 1027.12 202.604 1027.12 198.732C1027.12 197.238 1026.34 196.461 1026.34 196.461C1026.34 196.461 1026.75 194.866 1026.2 194.191C1025.58 194.124 1024.47 194.783 1024 195.09C1024 195.09 1023.25 194.783 1022 194.783C1020.75 194.783 1020 195.09 1020 195.09C1019.53 194.783 1018.42 194.124 1017.8 194.191C1017.25 194.868 1017.66 196.461 1017.66 196.461C1017.66 196.461 1016.88 197.239 1016.88 198.732C1016.88 202.604 1020.51 202.562 1020.51 202.562C1020.51 202.562 1020.14 202.976 1020.06 203.582C1019.81 203.668 1019.44 203.775 1019.14 203.775C1018.35 203.775 1017.75 203.009 1017.53 202.655C1017.31 202.306 1016.87 202.013 1016.46 202.013C1016.18 202.013 1016.05 202.149 1016.05 202.305C1016.05 202.46 1016.43 202.57 1016.69 202.858C1017.22 203.466 1017.21 204.836 1019.1 204.836C1019.31 204.836 1019.73 204.785 1020.04 204.742C1020.04 205.174 1020.04 205.628 1020.05 205.894C1020.06 206.346 1019.52 206.598 1019.52 206.598C1019.52 206.598 1019.52 206.603 1019.52 206.605C1016.32 205.561 1014 202.552 1014 199C1014 194.582 1017.58 191 1022 191Z" fill="#828282"/>
<rect x="343" y="325" width="494" height="45" rx="6" fill="#212121"/>
<rect x="845" y="325" width="113" height="45" rx="6" fill="#FF5C00"/>
<path d="M886.385 353V341.8H890.881C892.044 341.8 892.929 342.072 893.537 342.616C894.156 343.149 894.465 343.837 894.465 344.68C894.465 345.384 894.273 345.949 893.889 346.376C893.516 346.792 893.057 347.075 892.513 347.224C893.153 347.352 893.681 347.672 894.097 348.184C894.513 348.685 894.721 349.272 894.721 349.944C894.721 350.829 894.401 351.56 893.761 352.136C893.121 352.712 892.214 353 891.041 353H886.385ZM888.433 346.504H890.577C891.153 346.504 891.596 346.371 891.905 346.104C892.214 345.837 892.369 345.459 892.369 344.968C892.369 344.499 892.214 344.131 891.905 343.864C891.606 343.587 891.153 343.448 890.545 343.448H888.433V346.504ZM888.433 351.336H890.721C891.329 351.336 891.798 351.197 892.129 350.92C892.47 350.632 892.641 350.232 892.641 349.72C892.641 349.197 892.465 348.787 892.113 348.488C891.761 348.189 891.286 348.04 890.689 348.04H888.433V351.336ZM899.407 353.192C898.415 353.192 897.647 352.883 897.103 352.264C896.569 351.645 896.303 350.739 896.303 349.544V345.064H898.335V349.352C898.335 350.035 898.473 350.557 898.751 350.92C899.028 351.283 899.465 351.464 900.063 351.464C900.628 351.464 901.092 351.261 901.455 350.856C901.828 350.451 902.015 349.885 902.015 349.16V345.064H904.063V353H902.255L902.095 351.656C901.849 352.125 901.492 352.499 901.023 352.776C900.564 353.053 900.025 353.192 899.407 353.192ZM909.445 353.192C908.741 353.192 908.122 353.08 907.589 352.856C907.056 352.621 906.629 352.301 906.309 351.896C905.989 351.491 905.797 351.021 905.733 350.488H907.797C907.861 350.797 908.032 351.064 908.309 351.288C908.597 351.501 908.965 351.608 909.413 351.608C909.861 351.608 910.186 351.517 910.389 351.336C910.602 351.155 910.709 350.947 910.709 350.712C910.709 350.371 910.56 350.141 910.261 350.024C909.962 349.896 909.546 349.773 909.013 349.656C908.672 349.581 908.325 349.491 907.973 349.384C907.621 349.277 907.296 349.144 906.997 348.984C906.709 348.813 906.474 348.6 906.293 348.344C906.112 348.077 906.021 347.752 906.021 347.368C906.021 346.664 906.298 346.072 906.853 345.592C907.418 345.112 908.208 344.872 909.221 344.872C910.16 344.872 910.906 345.091 911.461 345.528C912.026 345.965 912.362 346.568 912.469 347.336H910.533C910.416 346.749 909.973 346.456 909.205 346.456C908.821 346.456 908.522 346.531 908.309 346.68C908.106 346.829 908.005 347.016 908.005 347.24C908.005 347.475 908.16 347.661 908.469 347.8C908.778 347.939 909.189 348.067 909.701 348.184C910.256 348.312 910.762 348.456 911.221 348.616C911.69 348.765 912.064 348.995 912.341 349.304C912.618 349.603 912.757 350.035 912.757 350.6C912.768 351.091 912.64 351.533 912.373 351.928C912.106 352.323 911.722 352.632 911.221 352.856C910.72 353.08 910.128 353.192 909.445 353.192ZM918.459 353.192C917.649 353.192 916.934 353.016 916.315 352.664C915.697 352.312 915.206 351.821 914.843 351.192C914.491 350.563 914.315 349.843 914.315 349.032C914.315 348.221 914.491 347.501 914.843 346.872C915.206 346.243 915.697 345.752 916.315 345.4C916.934 345.048 917.649 344.872 918.459 344.872C919.473 344.872 920.326 345.139 921.019 345.672C921.713 346.195 922.155 346.92 922.347 347.848H920.187C920.081 347.464 919.867 347.165 919.547 346.952C919.238 346.728 918.87 346.616 918.443 346.616C917.878 346.616 917.398 346.829 917.003 347.256C916.609 347.683 916.411 348.275 916.411 349.032C916.411 349.789 916.609 350.381 917.003 350.808C917.398 351.235 917.878 351.448 918.443 351.448C918.87 351.448 919.238 351.341 919.547 351.128C919.867 350.915 920.081 350.611 920.187 350.216H922.347C922.155 351.112 921.713 351.832 921.019 352.376C920.326 352.92 919.473 353.192 918.459 353.192ZM926.901 353.192C926.218 353.192 925.658 353.085 925.221 352.872C924.784 352.648 924.458 352.355 924.245 351.992C924.032 351.629 923.925 351.229 923.925 350.792C923.925 350.056 924.213 349.459 924.789 349C925.365 348.541 926.229 348.312 927.381 348.312H929.397V348.12C929.397 347.576 929.242 347.176 928.933 346.92C928.624 346.664 928.24 346.536 927.781 346.536C927.365 346.536 927.002 346.637 926.693 346.84C926.384 347.032 926.192 347.32 926.117 347.704H924.117C924.17 347.128 924.362 346.627 924.693 346.2C925.034 345.773 925.472 345.448 926.005 345.224C926.538 344.989 927.136 344.872 927.797 344.872C928.928 344.872 929.818 345.155 930.469 345.72C931.12 346.285 931.445 347.085 931.445 348.12V353H929.701L929.509 351.72C929.274 352.147 928.944 352.499 928.517 352.776C928.101 353.053 927.562 353.192 926.901 353.192ZM927.365 351.592C927.952 351.592 928.405 351.4 928.725 351.016C929.056 350.632 929.264 350.157 929.349 349.592H927.605C927.061 349.592 926.672 349.693 926.437 349.896C926.202 350.088 926.085 350.328 926.085 350.616C926.085 350.925 926.202 351.165 926.437 351.336C926.672 351.507 926.981 351.592 927.365 351.592ZM933.399 353V345.064H935.223L935.415 346.552C935.703 346.04 936.093 345.635 936.583 345.336C937.085 345.027 937.671 344.872 938.343 344.872V347.032H937.767C937.319 347.032 936.919 347.101 936.567 347.24C936.215 347.379 935.938 347.619 935.735 347.96C935.543 348.301 935.447 348.776 935.447 349.384V353H933.399Z" fill="white"/>
<path d="M393.411 353V341.8H394.755V351.928H399.971V353H393.411ZM404.961 353.192C404.204 353.192 403.532 353.021 402.945 352.68C402.358 352.328 401.894 351.843 401.553 351.224C401.222 350.605 401.057 349.875 401.057 349.032C401.057 348.2 401.222 347.475 401.553 346.856C401.884 346.227 402.342 345.741 402.929 345.4C403.526 345.048 404.214 344.872 404.993 344.872C405.761 344.872 406.422 345.048 406.977 345.4C407.542 345.741 407.974 346.195 408.273 346.76C408.572 347.325 408.721 347.933 408.721 348.584C408.721 348.701 408.716 348.819 408.705 348.936C408.705 349.053 408.705 349.187 408.705 349.336H402.385C402.417 349.944 402.556 350.451 402.801 350.856C403.057 351.251 403.372 351.549 403.745 351.752C404.129 351.955 404.534 352.056 404.961 352.056C405.516 352.056 405.98 351.928 406.353 351.672C406.726 351.416 406.998 351.069 407.169 350.632H408.497C408.284 351.368 407.873 351.981 407.265 352.472C406.668 352.952 405.9 353.192 404.961 353.192ZM404.961 346.008C404.321 346.008 403.75 346.205 403.249 346.6C402.758 346.984 402.476 347.549 402.401 348.296H407.393C407.361 347.581 407.116 347.021 406.657 346.616C406.198 346.211 405.633 346.008 404.961 346.008ZM414.742 353.192C414.092 353.192 413.51 353.059 412.998 352.792C412.497 352.525 412.113 352.152 411.846 351.672L411.718 353H410.502V341.48H411.846V346.376C412.102 345.992 412.465 345.645 412.934 345.336C413.414 345.027 414.022 344.872 414.758 344.872C415.548 344.872 416.236 345.053 416.822 345.416C417.409 345.779 417.862 346.275 418.182 346.904C418.513 347.533 418.678 348.248 418.678 349.048C418.678 349.848 418.513 350.563 418.182 351.192C417.862 351.811 417.404 352.301 416.806 352.664C416.22 353.016 415.532 353.192 414.742 353.192ZM414.598 352.024C415.132 352.024 415.601 351.901 416.006 351.656C416.412 351.4 416.732 351.048 416.966 350.6C417.201 350.152 417.318 349.629 417.318 349.032C417.318 348.435 417.201 347.912 416.966 347.464C416.732 347.016 416.412 346.669 416.006 346.424C415.601 346.168 415.132 346.04 414.598 346.04C414.065 346.04 413.596 346.168 413.19 346.424C412.785 346.669 412.465 347.016 412.23 347.464C411.996 347.912 411.878 348.435 411.878 349.032C411.878 349.629 411.996 350.152 412.23 350.6C412.465 351.048 412.785 351.4 413.19 351.656C413.596 351.901 414.065 352.024 414.598 352.024ZM420.549 353V345.064H421.765L421.877 346.584C422.123 346.061 422.496 345.645 422.997 345.336C423.499 345.027 424.117 344.872 424.853 344.872V346.28H424.485C424.016 346.28 423.584 346.365 423.189 346.536C422.795 346.696 422.48 346.973 422.245 347.368C422.011 347.763 421.893 348.307 421.893 349V353H420.549ZM429.681 353.192C428.934 353.192 428.262 353.021 427.665 352.68C427.068 352.339 426.593 351.859 426.241 351.24C425.9 350.611 425.729 349.875 425.729 349.032C425.729 348.189 425.905 347.459 426.257 346.84C426.609 346.211 427.084 345.725 427.681 345.384C428.289 345.043 428.966 344.872 429.713 344.872C430.46 344.872 431.132 345.043 431.729 345.384C432.326 345.725 432.796 346.211 433.137 346.84C433.489 347.459 433.665 348.189 433.665 349.032C433.665 349.875 433.489 350.611 433.137 351.24C432.785 351.859 432.305 352.339 431.697 352.68C431.1 353.021 430.428 353.192 429.681 353.192ZM429.681 352.04C430.14 352.04 430.566 351.928 430.961 351.704C431.356 351.48 431.676 351.144 431.921 350.696C432.166 350.248 432.289 349.693 432.289 349.032C432.289 348.371 432.166 347.816 431.921 347.368C431.686 346.92 431.372 346.584 430.977 346.36C430.582 346.136 430.161 346.024 429.713 346.024C429.254 346.024 428.828 346.136 428.433 346.36C428.038 346.584 427.718 346.92 427.473 347.368C427.228 347.816 427.105 348.371 427.105 349.032C427.105 349.693 427.228 350.248 427.473 350.696C427.718 351.144 428.033 351.48 428.417 351.704C428.812 351.928 429.233 352.04 429.681 352.04ZM435.534 353V345.064H436.75L436.83 346.488C437.086 345.987 437.454 345.592 437.934 345.304C438.414 345.016 438.958 344.872 439.566 344.872C440.504 344.872 441.251 345.16 441.806 345.736C442.371 346.301 442.654 347.176 442.654 348.36V353H441.31V348.504C441.31 346.851 440.627 346.024 439.262 346.024C438.579 346.024 438.008 346.275 437.55 346.776C437.102 347.267 436.878 347.971 436.878 348.888V353H435.534ZM449.804 343.304C449.548 343.304 449.33 343.219 449.148 343.048C448.967 342.867 448.876 342.643 448.876 342.376C448.876 342.12 448.967 341.907 449.148 341.736C449.33 341.565 449.548 341.48 449.804 341.48C450.06 341.48 450.274 341.565 450.444 341.736C450.626 341.907 450.716 342.12 450.716 342.376C450.716 342.643 450.626 342.867 450.444 343.048C450.274 343.219 450.06 343.304 449.804 343.304ZM447.372 356.52V355.368H447.996C448.391 355.368 448.674 355.283 448.844 355.112C449.026 354.952 449.116 354.675 449.116 354.28V345.064H450.46V354.312C450.46 355.08 450.268 355.64 449.884 355.992C449.5 356.344 448.94 356.52 448.204 356.52H447.372ZM455.439 353.192C454.778 353.192 454.229 353.08 453.791 352.856C453.354 352.632 453.029 352.333 452.815 351.96C452.602 351.587 452.495 351.181 452.495 350.744C452.495 349.933 452.805 349.309 453.423 348.872C454.042 348.435 454.885 348.216 455.951 348.216H458.095V348.12C458.095 347.427 457.914 346.904 457.551 346.552C457.189 346.189 456.703 346.008 456.095 346.008C455.573 346.008 455.119 346.141 454.735 346.408C454.362 346.664 454.127 347.043 454.031 347.544H452.655C452.709 346.968 452.901 346.483 453.231 346.088C453.573 345.693 453.994 345.395 454.495 345.192C454.997 344.979 455.53 344.872 456.095 344.872C457.205 344.872 458.037 345.171 458.591 345.768C459.157 346.355 459.439 347.139 459.439 348.12V353H458.239L458.159 351.576C457.935 352.024 457.605 352.408 457.167 352.728C456.741 353.037 456.165 353.192 455.439 353.192ZM455.647 352.056C456.159 352.056 456.597 351.923 456.959 351.656C457.333 351.389 457.615 351.043 457.807 350.616C457.999 350.189 458.095 349.741 458.095 349.272V349.256H456.063C455.274 349.256 454.714 349.395 454.383 349.672C454.063 349.939 453.903 350.275 453.903 350.68C453.903 351.096 454.053 351.432 454.351 351.688C454.661 351.933 455.093 352.056 455.647 352.056ZM461.456 353V345.064H462.672L462.768 346.216C463.024 345.789 463.365 345.459 463.792 345.224C464.218 344.989 464.698 344.872 465.232 344.872C465.861 344.872 466.4 345 466.848 345.256C467.306 345.512 467.658 345.901 467.904 346.424C468.181 345.944 468.56 345.565 469.04 345.288C469.53 345.011 470.058 344.872 470.624 344.872C471.573 344.872 472.33 345.16 472.896 345.736C473.461 346.301 473.744 347.176 473.744 348.36V353H472.416V348.504C472.416 347.683 472.25 347.064 471.92 346.648C471.589 346.232 471.114 346.024 470.496 346.024C469.856 346.024 469.322 346.275 468.896 346.776C468.48 347.267 468.272 347.971 468.272 348.888V353H466.928V348.504C466.928 347.683 466.762 347.064 466.432 346.648C466.101 346.232 465.626 346.024 465.008 346.024C464.378 346.024 463.85 346.275 463.424 346.776C463.008 347.267 462.8 347.971 462.8 348.888V353H461.456ZM479.336 353.192C478.579 353.192 477.907 353.021 477.32 352.68C476.733 352.328 476.269 351.843 475.928 351.224C475.597 350.605 475.432 349.875 475.432 349.032C475.432 348.2 475.597 347.475 475.928 346.856C476.259 346.227 476.717 345.741 477.304 345.4C477.901 345.048 478.589 344.872 479.368 344.872C480.136 344.872 480.797 345.048 481.352 345.4C481.917 345.741 482.349 346.195 482.648 346.76C482.947 347.325 483.096 347.933 483.096 348.584C483.096 348.701 483.091 348.819 483.08 348.936C483.08 349.053 483.08 349.187 483.08 349.336H476.76C476.792 349.944 476.931 350.451 477.176 350.856C477.432 351.251 477.747 351.549 478.12 351.752C478.504 351.955 478.909 352.056 479.336 352.056C479.891 352.056 480.355 351.928 480.728 351.672C481.101 351.416 481.373 351.069 481.544 350.632H482.872C482.659 351.368 482.248 351.981 481.64 352.472C481.043 352.952 480.275 353.192 479.336 353.192ZM479.336 346.008C478.696 346.008 478.125 346.205 477.624 346.6C477.133 346.984 476.851 347.549 476.776 348.296H481.768C481.736 347.581 481.491 347.021 481.032 346.616C480.573 346.211 480.008 346.008 479.336 346.008ZM487.917 353.192C486.968 353.192 486.179 352.952 485.549 352.472C484.92 351.992 484.552 351.341 484.445 350.52H485.821C485.907 350.936 486.125 351.299 486.477 351.608C486.84 351.907 487.325 352.056 487.933 352.056C488.499 352.056 488.915 351.939 489.181 351.704C489.448 351.459 489.581 351.171 489.581 350.84C489.581 350.36 489.405 350.04 489.053 349.88C488.712 349.72 488.227 349.576 487.597 349.448C487.171 349.363 486.744 349.24 486.317 349.08C485.891 348.92 485.533 348.696 485.245 348.408C484.957 348.109 484.813 347.72 484.813 347.24C484.813 346.547 485.069 345.981 485.581 345.544C486.104 345.096 486.808 344.872 487.693 344.872C488.536 344.872 489.224 345.085 489.757 345.512C490.301 345.928 490.616 346.525 490.701 347.304H489.373C489.32 346.899 489.144 346.584 488.845 346.36C488.557 346.125 488.168 346.008 487.677 346.008C487.197 346.008 486.824 346.109 486.557 346.312C486.301 346.515 486.173 346.781 486.173 347.112C486.173 347.432 486.339 347.683 486.669 347.864C487.011 348.045 487.469 348.2 488.045 348.328C488.536 348.435 489 348.568 489.437 348.728C489.885 348.877 490.248 349.107 490.525 349.416C490.813 349.715 490.957 350.152 490.957 350.728C490.968 351.443 490.696 352.035 490.141 352.504C489.597 352.963 488.856 353.192 487.917 353.192Z" fill="white"/>
<rect x="346.5" y="424.5" width="207.964" height="58" rx="3.5" fill="#212121" stroke="#333333"/>
<path d="M358.86 451V439.8H360.556V449.656H365.644V451H358.86ZM370.774 451.192C369.995 451.192 369.302 451.021 368.694 450.68C368.096 450.328 367.627 449.843 367.286 449.224C366.944 448.605 366.774 447.885 366.774 447.064C366.774 446.232 366.939 445.501 367.27 444.872C367.611 444.243 368.08 443.752 368.678 443.4C369.286 443.048 369.99 442.872 370.79 442.872C371.568 442.872 372.246 443.048 372.822 443.4C373.398 443.741 373.846 444.2 374.166 444.776C374.486 445.352 374.646 445.987 374.646 446.68C374.646 446.787 374.64 446.904 374.63 447.032C374.63 447.149 374.624 447.283 374.614 447.432H368.438C368.491 448.2 368.742 448.787 369.19 449.192C369.648 449.587 370.176 449.784 370.774 449.784C371.254 449.784 371.654 449.677 371.974 449.464C372.304 449.24 372.55 448.941 372.71 448.568H374.406C374.192 449.315 373.766 449.939 373.126 450.44C372.496 450.941 371.712 451.192 370.774 451.192ZM370.774 444.264C370.208 444.264 369.707 444.435 369.27 444.776C368.832 445.107 368.566 445.608 368.47 446.28H372.95C372.918 445.661 372.699 445.171 372.294 444.808C371.888 444.445 371.382 444.264 370.774 444.264ZM376.469 451V439.8H380.693C381.856 439.8 382.736 440.072 383.333 440.616C383.931 441.16 384.229 441.843 384.229 442.664C384.229 443.379 384.037 443.949 383.653 444.376C383.269 444.792 382.805 445.075 382.261 445.224C382.688 445.309 383.067 445.48 383.397 445.736C383.739 445.992 384.005 446.312 384.197 446.696C384.389 447.08 384.485 447.496 384.485 447.944C384.485 448.52 384.341 449.043 384.053 449.512C383.776 449.971 383.365 450.333 382.821 450.6C382.277 450.867 381.611 451 380.821 451H376.469ZM378.165 444.6H380.485C381.136 444.6 381.632 444.451 381.973 444.152C382.315 443.843 382.485 443.421 382.485 442.888C382.485 442.365 382.315 441.949 381.973 441.64C381.643 441.331 381.136 441.176 380.453 441.176H378.165V444.6ZM378.165 449.608H380.597C381.28 449.608 381.808 449.448 382.181 449.128C382.565 448.808 382.757 448.36 382.757 447.784C382.757 447.208 382.56 446.755 382.165 446.424C381.771 446.083 381.237 445.912 380.565 445.912H378.165V449.608ZM386.28 451V443.064H387.8L387.944 444.568C388.222 444.045 388.606 443.635 389.096 443.336C389.598 443.027 390.2 442.872 390.904 442.872V444.648H390.44C389.971 444.648 389.55 444.728 389.176 444.888C388.814 445.037 388.52 445.299 388.296 445.672C388.083 446.035 387.976 446.541 387.976 447.192V451H386.28ZM395.852 451.192C395.095 451.192 394.412 451.021 393.804 450.68C393.207 450.328 392.732 449.843 392.38 449.224C392.028 448.595 391.852 447.864 391.852 447.032C391.852 446.2 392.028 445.475 392.38 444.856C392.743 444.227 393.228 443.741 393.836 443.4C394.444 443.048 395.121 442.872 395.868 442.872C396.625 442.872 397.303 443.048 397.9 443.4C398.508 443.741 398.988 444.227 399.34 444.856C399.703 445.475 399.884 446.2 399.884 447.032C399.884 447.864 399.703 448.595 399.34 449.224C398.988 449.843 398.508 450.328 397.9 450.68C397.292 451.021 396.609 451.192 395.852 451.192ZM395.852 449.736C396.257 449.736 396.631 449.635 396.972 449.432C397.324 449.229 397.607 448.931 397.82 448.536C398.033 448.131 398.14 447.629 398.14 447.032C398.14 446.435 398.033 445.939 397.82 445.544C397.617 445.139 397.34 444.835 396.988 444.632C396.647 444.429 396.273 444.328 395.868 444.328C395.463 444.328 395.084 444.429 394.732 444.632C394.391 444.835 394.113 445.139 393.9 445.544C393.687 445.939 393.58 446.435 393.58 447.032C393.58 447.629 393.687 448.131 393.9 448.536C394.113 448.931 394.391 449.229 394.732 449.432C395.073 449.635 395.447 449.736 395.852 449.736ZM401.718 451V443.064H403.222L403.35 444.456C403.595 443.965 403.953 443.581 404.422 443.304C404.902 443.016 405.451 442.872 406.07 442.872C407.03 442.872 407.782 443.171 408.326 443.768C408.881 444.365 409.158 445.256 409.158 446.44V451H407.478V446.616C407.478 445.08 406.849 444.312 405.59 444.312C404.961 444.312 404.438 444.536 404.022 444.984C403.617 445.432 403.414 446.072 403.414 446.904V451H401.718ZM417.955 451.192C416.909 451.192 416.077 450.899 415.459 450.312C414.851 449.725 414.547 448.899 414.547 447.832H416.243C416.243 448.365 416.371 448.808 416.627 449.16C416.893 449.512 417.325 449.688 417.923 449.688C418.509 449.688 418.925 449.523 419.171 449.192C419.416 448.851 419.539 448.419 419.539 447.896V439.8H421.235V447.896C421.235 448.952 420.941 449.768 420.355 450.344C419.768 450.909 418.968 451.192 417.955 451.192ZM426.125 451.192C425.453 451.192 424.898 451.08 424.461 450.856C424.023 450.632 423.698 450.339 423.485 449.976C423.271 449.603 423.165 449.197 423.165 448.76C423.165 447.992 423.463 447.384 424.061 446.936C424.658 446.488 425.511 446.264 426.621 446.264H428.701V446.12C428.701 445.501 428.53 445.037 428.189 444.728C427.858 444.419 427.426 444.264 426.893 444.264C426.423 444.264 426.013 444.381 425.661 444.616C425.319 444.84 425.111 445.176 425.037 445.624H423.341C423.394 445.048 423.586 444.557 423.917 444.152C424.258 443.736 424.685 443.421 425.197 443.208C425.719 442.984 426.29 442.872 426.909 442.872C428.018 442.872 428.877 443.165 429.485 443.752C430.093 444.328 430.397 445.117 430.397 446.12V451H428.925L428.781 449.64C428.557 450.077 428.231 450.445 427.805 450.744C427.378 451.043 426.818 451.192 426.125 451.192ZM426.461 449.816C426.919 449.816 427.303 449.709 427.613 449.496C427.933 449.272 428.178 448.979 428.349 448.616C428.53 448.253 428.642 447.853 428.685 447.416H426.797C426.125 447.416 425.645 447.533 425.357 447.768C425.079 448.003 424.941 448.296 424.941 448.648C424.941 449.011 425.074 449.299 425.341 449.512C425.618 449.715 425.991 449.816 426.461 449.816ZM432.374 451V443.064H433.878L434.022 444.184C434.278 443.779 434.614 443.459 435.03 443.224C435.457 442.989 435.948 442.872 436.502 442.872C437.761 442.872 438.636 443.368 439.126 444.36C439.414 443.901 439.798 443.539 440.278 443.272C440.769 443.005 441.297 442.872 441.862 442.872C442.854 442.872 443.633 443.171 444.198 443.768C444.764 444.365 445.046 445.256 445.046 446.44V451H443.35V446.616C443.35 445.08 442.764 444.312 441.59 444.312C440.993 444.312 440.502 444.536 440.118 444.984C439.745 445.432 439.558 446.072 439.558 446.904V451H437.862V446.616C437.862 445.08 437.27 444.312 436.086 444.312C435.5 444.312 435.014 444.536 434.63 444.984C434.257 445.432 434.07 446.072 434.07 446.904V451H432.374ZM450.742 451.192C449.964 451.192 449.27 451.021 448.662 450.68C448.065 450.328 447.596 449.843 447.254 449.224C446.913 448.605 446.742 447.885 446.742 447.064C446.742 446.232 446.908 445.501 447.238 444.872C447.58 444.243 448.049 443.752 448.646 443.4C449.254 443.048 449.958 442.872 450.758 442.872C451.537 442.872 452.214 443.048 452.79 443.4C453.366 443.741 453.814 444.2 454.134 444.776C454.454 445.352 454.614 445.987 454.614 446.68C454.614 446.787 454.609 446.904 454.598 447.032C454.598 447.149 454.593 447.283 454.582 447.432H448.406C448.46 448.2 448.71 448.787 449.158 449.192C449.617 449.587 450.145 449.784 450.742 449.784C451.222 449.784 451.622 449.677 451.942 449.464C452.273 449.24 452.518 448.941 452.678 448.568H454.374C454.161 449.315 453.734 449.939 453.094 450.44C452.465 450.941 451.681 451.192 450.742 451.192ZM450.742 444.264C450.177 444.264 449.676 444.435 449.238 444.776C448.801 445.107 448.534 445.608 448.438 446.28H452.918C452.886 445.661 452.668 445.171 452.262 444.808C451.857 444.445 451.35 444.264 450.742 444.264ZM459.542 451.192C458.54 451.192 457.713 450.947 457.062 450.456C456.412 449.965 456.038 449.315 455.942 448.504H457.654C457.74 448.867 457.942 449.181 458.262 449.448C458.582 449.704 459.004 449.832 459.526 449.832C460.038 449.832 460.412 449.725 460.646 449.512C460.881 449.299 460.998 449.053 460.998 448.776C460.998 448.371 460.833 448.099 460.502 447.96C460.182 447.811 459.734 447.677 459.158 447.56C458.71 447.464 458.262 447.336 457.814 447.176C457.377 447.016 457.009 446.792 456.71 446.504C456.422 446.205 456.278 445.805 456.278 445.304C456.278 444.611 456.545 444.035 457.078 443.576C457.612 443.107 458.358 442.872 459.318 442.872C460.204 442.872 460.918 443.085 461.462 443.512C462.017 443.939 462.342 444.541 462.438 445.32H460.806C460.753 444.979 460.593 444.712 460.326 444.52C460.07 444.328 459.724 444.232 459.286 444.232C458.86 444.232 458.529 444.323 458.294 444.504C458.06 444.675 457.942 444.899 457.942 445.176C457.942 445.453 458.102 445.672 458.422 445.832C458.753 445.992 459.185 446.136 459.718 446.264C460.252 446.381 460.742 446.52 461.19 446.68C461.649 446.829 462.017 447.053 462.294 447.352C462.572 447.651 462.71 448.088 462.71 448.664C462.721 449.389 462.438 449.992 461.862 450.472C461.297 450.952 460.524 451.192 459.542 451.192Z" fill="white"/>
<path d="M359.875 470V460.2H361.051V469.062H365.615V470H359.875ZM369.471 470.168C368.892 470.168 368.411 470.07 368.029 469.874C367.646 469.678 367.361 469.417 367.175 469.09C366.988 468.763 366.895 468.409 366.895 468.026C366.895 467.317 367.165 466.771 367.707 466.388C368.248 466.005 368.985 465.814 369.919 465.814H371.795V465.73C371.795 465.123 371.636 464.666 371.319 464.358C371.001 464.041 370.577 463.882 370.045 463.882C369.587 463.882 369.191 463.999 368.855 464.232C368.528 464.456 368.323 464.787 368.239 465.226H367.035C367.081 464.722 367.249 464.297 367.539 463.952C367.837 463.607 368.206 463.345 368.645 463.168C369.083 462.981 369.55 462.888 370.045 462.888C371.015 462.888 371.743 463.149 372.229 463.672C372.723 464.185 372.971 464.871 372.971 465.73V470H371.921L371.851 468.754C371.655 469.146 371.365 469.482 370.983 469.762C370.609 470.033 370.105 470.168 369.471 470.168ZM369.653 469.174C370.101 469.174 370.483 469.057 370.801 468.824C371.127 468.591 371.375 468.287 371.543 467.914C371.711 467.541 371.795 467.149 371.795 466.738V466.724H370.017C369.326 466.724 368.836 466.845 368.547 467.088C368.267 467.321 368.127 467.615 368.127 467.97C368.127 468.334 368.257 468.628 368.519 468.852C368.789 469.067 369.167 469.174 369.653 469.174ZM374.735 470V459.92H375.911V465.982L378.753 463.056H380.195L377.115 466.192L380.587 470H379.089L375.911 466.402V470H374.735ZM384.406 470.168C383.743 470.168 383.155 470.019 382.642 469.72C382.129 469.412 381.723 468.987 381.424 468.446C381.135 467.905 380.99 467.265 380.99 466.528C380.99 465.8 381.135 465.165 381.424 464.624C381.713 464.073 382.115 463.649 382.628 463.35C383.151 463.042 383.753 462.888 384.434 462.888C385.106 462.888 385.685 463.042 386.17 463.35C386.665 463.649 387.043 464.045 387.304 464.54C387.565 465.035 387.696 465.567 387.696 466.136C387.696 466.239 387.691 466.341 387.682 466.444C387.682 466.547 387.682 466.663 387.682 466.794H382.152C382.18 467.326 382.301 467.769 382.516 468.124C382.74 468.469 383.015 468.731 383.342 468.908C383.678 469.085 384.033 469.174 384.406 469.174C384.891 469.174 385.297 469.062 385.624 468.838C385.951 468.614 386.189 468.311 386.338 467.928H387.5C387.313 468.572 386.954 469.109 386.422 469.538C385.899 469.958 385.227 470.168 384.406 470.168ZM384.406 463.882C383.846 463.882 383.347 464.055 382.908 464.4C382.479 464.736 382.231 465.231 382.166 465.884H386.534C386.506 465.259 386.291 464.769 385.89 464.414C385.489 464.059 384.994 463.882 384.406 463.882ZM389.255 470V463.056H390.319L390.417 464.386C390.631 463.929 390.958 463.565 391.397 463.294C391.835 463.023 392.377 462.888 393.021 462.888V464.12H392.699C392.288 464.12 391.91 464.195 391.565 464.344C391.219 464.484 390.944 464.727 390.739 465.072C390.533 465.417 390.431 465.893 390.431 466.5V470H389.255ZM397.001 470.168C396.17 470.168 395.479 469.958 394.929 469.538C394.378 469.118 394.056 468.549 393.963 467.83H395.167C395.241 468.194 395.433 468.511 395.741 468.782C396.058 469.043 396.483 469.174 397.015 469.174C397.509 469.174 397.873 469.071 398.107 468.866C398.34 468.651 398.457 468.399 398.457 468.11C398.457 467.69 398.303 467.41 397.995 467.27C397.696 467.13 397.271 467.004 396.721 466.892C396.347 466.817 395.974 466.71 395.601 466.57C395.227 466.43 394.915 466.234 394.663 465.982C394.411 465.721 394.285 465.38 394.285 464.96C394.285 464.353 394.509 463.859 394.957 463.476C395.414 463.084 396.03 462.888 396.805 462.888C397.542 462.888 398.144 463.075 398.611 463.448C399.087 463.812 399.362 464.335 399.437 465.016H398.275C398.228 464.661 398.074 464.386 397.813 464.19C397.561 463.985 397.22 463.882 396.791 463.882C396.371 463.882 396.044 463.971 395.811 464.148C395.587 464.325 395.475 464.559 395.475 464.848C395.475 465.128 395.619 465.347 395.909 465.506C396.207 465.665 396.609 465.8 397.113 465.912C397.542 466.005 397.948 466.122 398.331 466.262C398.723 466.393 399.04 466.593 399.283 466.864C399.535 467.125 399.661 467.508 399.661 468.012C399.67 468.637 399.432 469.155 398.947 469.566C398.471 469.967 397.822 470.168 397.001 470.168Z" fill="#828282"/>
<g clip-path="url(#clip2_431_311)">
<path d="M540.059 446.931C536.591 442.735 531.238 441.166 526.374 442.42C524.41 442.927 522.526 443.895 520.879 445.336C515.155 450.344 514.461 459.179 519.33 465.069C522.797 469.264 528.152 470.835 533.014 469.579C534.979 469.074 536.862 468.104 538.51 466.664C544.232 461.656 544.926 452.821 540.059 446.931ZM540.337 460.52C539.33 459.797 538.14 459.524 536.832 459.748C536.742 457.921 536.503 456.165 536.176 454.523C537.243 454.409 539.115 454.287 541.112 454.498C541.363 456.535 541.1 458.613 540.337 460.52ZM518.461 454.489C518.74 453.348 520.356 450.537 522.877 450.058C524.599 449.733 526.486 449.768 528.309 449.8C529.988 449.83 531.581 449.845 533.023 449.623C533.381 450.666 533.734 451.824 534.046 453.069C525.725 454.693 520.812 458.403 518.901 460.136C518.571 459.225 517.943 456.598 518.461 454.489ZM534.148 447.582C533.68 446.365 533.229 445.355 532.867 444.599C533.868 444.894 534.825 445.329 535.717 445.896C535.691 446.891 534.809 447.365 534.148 447.582ZM534.438 454.805C534.784 456.51 535.032 458.341 535.106 460.241C533.011 460.977 531.829 461.744 530.585 462.549C529.619 463.175 528.622 463.823 527.074 464.527C525.271 465.349 523.678 465.138 522.573 464.756C521.445 464.088 520.527 462.956 519.766 461.737C521.258 460.336 526.06 456.428 534.438 454.805ZM538.478 448.313C539.517 449.57 540.32 451.08 540.768 452.565C538.388 452.453 536.442 452.698 535.785 452.775C535.473 451.506 535.118 450.323 534.755 449.251C535.725 448.908 536.799 448.22 537.243 447.049C537.677 447.437 538.097 447.851 538.478 448.313ZM522.222 446.961C523.587 445.766 525.153 444.935 526.877 444.491C528.155 444.161 529.445 444.074 530.705 444.186C530.966 444.675 531.643 446.005 532.396 447.923C531.154 448.069 529.78 448.048 528.34 448.02C526.431 447.983 524.455 447.947 522.562 448.306C521.631 448.483 520.828 448.885 520.134 449.394C520.707 448.509 521.395 447.684 522.222 446.961ZM532.509 467.509C529.95 468.169 527.345 467.899 525.045 466.852C525.892 466.795 526.81 466.596 527.774 466.156C529.437 465.398 530.536 464.687 531.507 464.057C532.583 463.36 533.554 462.738 535.117 462.133C535.08 463.641 534.919 465.182 534.601 466.724C533.933 467.052 533.239 467.321 532.509 467.509ZM537.164 465.038C536.975 465.205 536.773 465.35 536.574 465.499C536.766 464.167 536.858 462.849 536.868 461.56C537.908 461.32 538.808 461.506 539.552 462.129C538.927 463.197 538.138 464.186 537.164 465.038Z" fill="#17408B"/>
</g>
<path d="M373.531 357.469L368.837 352.776C370.197 351.143 370.875 349.048 370.731 346.927C370.586 344.806 369.629 342.823 368.059 341.389C366.489 339.956 364.427 339.183 362.302 339.231C360.177 339.28 358.152 340.146 356.649 341.649C355.145 343.152 354.28 345.177 354.231 347.302C354.183 349.427 354.956 351.489 356.389 353.059C357.823 354.629 359.806 355.586 361.927 355.731C364.048 355.876 366.143 355.197 367.776 353.837L372.469 358.531C372.539 358.6 372.622 358.656 372.713 358.693C372.804 358.731 372.901 358.75 373 358.75C373.099 358.75 373.196 358.731 373.287 358.693C373.378 358.656 373.461 358.6 373.531 358.531C373.6 358.461 373.656 358.378 373.693 358.287C373.731 358.196 373.75 358.099 373.75 358C373.75 357.901 373.731 357.804 373.693 357.713C373.656 357.622 373.6 357.539 373.531 357.469ZM355.75 347.5C355.75 346.165 356.146 344.86 356.888 343.75C357.629 342.64 358.683 341.775 359.917 341.264C361.15 340.753 362.507 340.619 363.817 340.88C365.126 341.14 366.329 341.783 367.273 342.727C368.217 343.671 368.86 344.874 369.12 346.183C369.381 347.493 369.247 348.85 368.736 350.083C368.225 351.317 367.36 352.371 366.25 353.112C365.14 353.854 363.835 354.25 362.5 354.25C360.71 354.248 358.995 353.536 357.729 352.271C356.464 351.005 355.752 349.29 355.75 347.5Z" fill="#828282"/>
</g>
<defs>
<filter id="filter0_f_431_311" x="129.095" y="697.865" width="1046.87" height="98.5952" filterUnits="userSpaceOnUse" color-interpolation-filters="sRGB">
<feFlood flood-opacity="0" result="BackgroundImageFix"/>
<feBlend mode="normal" in="SourceGraphic" in2="BackgroundImageFix" result="shape"/>
<feGaussianBlur stdDeviation="22" result="effect1_foregroundBlur_431_311"/>
</filter>
<linearGradient id="paint0_linear_431_311" x1="118" y1="724.913" x2="1186" y2="724.913" gradientUnits="userSpaceOnUse">
<stop stop-color="#0D1012"/>
<stop offset="0.0295345" stop-color="#CAD4DB"/>
<stop offset="0.0625" stop-color="#242729"/>
<stop offset="0.133609" stop-color="#A3ACB1"/>
<stop offset="0.865967" stop-color="#A3ACB1"/>
<stop offset="0.941937" stop-color="#242729"/>
<stop offset="0.971275" stop-color="#CAD4DB"/>
<stop offset="0.996436" stop-color="#0D1012"/>
</linearGradient>
<linearGradient id="paint1_linear_431_311" x1="652" y1="727.586" x2="652" y2="740.3" gradientUnits="userSpaceOnUse">
<stop stop-color="#7A7F83"/>
<stop offset="1" stop-color="#0B0B0E"/>
</linearGradient>
<linearGradient id="paint2_linear_431_311" x1="581.542" y1="725.594" x2="726.697" y2="725.594" gradientUnits="userSpaceOnUse">
<stop stop-color="#3C3C3C"/>
<stop offset="0.317518" stop-color="#3C3C3C" stop-opacity="0"/>
<stop offset="0.660584" stop-color="#3C3C3C" stop-opacity="0"/>
<stop offset="1" stop-color="#444444"/>
</linearGradient>
<clipPath id="clip0_431_311">
<rect width="795" height="506" fill="white" transform="translate(255 171)"/>
</clipPath>
<clipPath id="clip1_431_311">
<rect width="17" height="38" fill="white" transform="translate(330 181)"/>
</clipPath>
<clipPath id="clip2_431_311">
<rect width="27.2139" height="28" fill="white" transform="translate(516.087 442)"/>
</clipPath>
</defs>
</svg>
